# xmcd
#
# Track frame offsets:
#       150
#       31308
#       69672
#       82652
#       107577
#       121373
#       140725
#       164969
#       188741
#       217928
#       247648
#       272533
#
# Disc length: 4185 seconds
#
# Revision: 1
# Processed by: cddbd v1.4PL0 Copyright (c) Steve Scherf et al.
# Submitted via: MusiCat 1.1
#
DISCID=a010570c
DTITLE=Chris Finnen - Three Sixty Degrees
DYEAR=1900
DGENRE=
TTITLE0=Matilda in D - Australian Heartbreak
TTITLE1=Highland Mist
TTITLE2=Blues In The Woodwork
TTITLE3=Children of Africa (Banyana)
TTITLE4=Swinging On The Gate
TTITLE5=The Duhn
TTITLE6=African Market Place
TTITLE7=Great Dream Fromn Heaven
TTITLE8=Lucas Aaron
TTITLE9=Winged Messenger
TTITLE10=All Through The Night
TTITLE11=Country
EXTD=0\n\n\n
EXTT0=
EXTT1=
EXTT2=
EXTT3=
EXTT4=
EXTT5=
EXTT6=
EXTT7=
EXTT8=
EXTT9=
EXTT10=
EXTT11=
PLAYORDER=
